<mxfile host="app.diagrams.net" modified="2021-10-05T20:28:12.294Z" agent="5.0 (Windows NT 10.0; Win64; x64) AppleWebKit/537.36 (KHTML, like Gecko) Chrome/93.0.4577.82 Safari/537.36 OPR/79.0.4143.73" etag="qc8mgALUvZus-_WGWpfX" version="15.3.5" type="github">
  <diagram id="eKYlq76rNZnLBtfX62G9" name="Page-1">
    <mxGraphModel dx="1422" dy="764" grid="0" gridSize="10" guides="1" tooltips="1" connect="1" arrows="1" fold="1" page="1" pageScale="1" pageWidth="827" pageHeight="1169" background="#114B5F" math="0" shadow="0">
      <root>
        <mxCell id="0" />
        <mxCell id="1" parent="0" />
        <mxCell id="HFtPqclyL5IR0Il3LefF-30" style="edgeStyle=orthogonalEdgeStyle;rounded=0;orthogonalLoop=1;jettySize=auto;html=1;strokeColor=#028090;fontColor=#E4FDE1;labelBackgroundColor=#114B5F;" parent="1" source="HFtPqclyL5IR0Il3LefF-26" target="HFtPqclyL5IR0Il3LefF-31" edge="1">
          <mxGeometry relative="1" as="geometry">
            <mxPoint x="60" y="120" as="targetPoint" />
          </mxGeometry>
        </mxCell>
        <mxCell id="lfEdYtf8iI8myToO-Pdx-7" style="edgeStyle=none;curved=1;rounded=1;sketch=0;orthogonalLoop=1;jettySize=auto;html=1;exitX=0;exitY=1;exitDx=0;exitDy=0;entryX=0.5;entryY=0;entryDx=0;entryDy=0;fontColor=#E4FDE1;endArrow=open;startSize=14;endSize=14;sourcePerimeterSpacing=8;targetPerimeterSpacing=8;strokeColor=#028090;fillColor=#F45B69;" edge="1" parent="1" source="HFtPqclyL5IR0Il3LefF-26" target="lfEdYtf8iI8myToO-Pdx-2">
          <mxGeometry relative="1" as="geometry" />
        </mxCell>
        <mxCell id="HFtPqclyL5IR0Il3LefF-26" value="" style="rounded=0;whiteSpace=wrap;html=1;fillColor=#F45B69;strokeColor=#028090;fontColor=#E4FDE1;" parent="1" vertex="1">
          <mxGeometry x="319" y="20" width="190" height="60" as="geometry" />
        </mxCell>
        <mxCell id="HFtPqclyL5IR0Il3LefF-42" style="edgeStyle=orthogonalEdgeStyle;curved=0;rounded=1;sketch=0;orthogonalLoop=1;jettySize=auto;html=1;fontColor=#E4FDE1;strokeColor=#028090;fillColor=#F45B69;labelBackgroundColor=#114B5F;" parent="1" edge="1">
          <mxGeometry relative="1" as="geometry">
            <mxPoint x="720" y="90" as="targetPoint" />
            <mxPoint x="510" y="50" as="sourcePoint" />
            <Array as="points">
              <mxPoint x="720" y="50" />
            </Array>
          </mxGeometry>
        </mxCell>
        <mxCell id="HFtPqclyL5IR0Il3LefF-28" value="Сайт&lt;br&gt;gamenews.com" style="text;html=1;strokeColor=none;fillColor=none;align=center;verticalAlign=middle;whiteSpace=wrap;rounded=0;fontColor=#E4FDE1;" parent="1" vertex="1">
          <mxGeometry x="330" y="40" width="170" height="20" as="geometry" />
        </mxCell>
        <mxCell id="HFtPqclyL5IR0Il3LefF-31" value="" style="rounded=0;whiteSpace=wrap;html=1;fillColor=#F45B69;strokeColor=#028090;fontColor=#E4FDE1;" parent="1" vertex="1">
          <mxGeometry x="80" y="20" width="120" height="60" as="geometry" />
        </mxCell>
        <mxCell id="HFtPqclyL5IR0Il3LefF-32" value="главная" style="text;html=1;strokeColor=none;fillColor=none;align=center;verticalAlign=middle;whiteSpace=wrap;rounded=0;fontColor=#E4FDE1;" parent="1" vertex="1">
          <mxGeometry x="110" y="40" width="60" height="20" as="geometry" />
        </mxCell>
        <mxCell id="HFtPqclyL5IR0Il3LefF-37" value="главное за сегодня" style="rounded=1;whiteSpace=wrap;html=1;fillColor=#F45B69;strokeColor=#028090;fontColor=#E4FDE1;" parent="1" vertex="1">
          <mxGeometry x="60" y="200" width="110" height="60" as="geometry" />
        </mxCell>
        <mxCell id="HFtPqclyL5IR0Il3LefF-39" value="популярные новости" style="rounded=1;whiteSpace=wrap;html=1;fillColor=#F45B69;strokeColor=#028090;fontColor=#E4FDE1;" parent="1" vertex="1">
          <mxGeometry x="27" y="296" width="110" height="50" as="geometry" />
        </mxCell>
        <mxCell id="HFtPqclyL5IR0Il3LefF-41" value="последние новости" style="rounded=1;whiteSpace=wrap;html=1;fillColor=#F45B69;strokeColor=#028090;fontColor=#E4FDE1;" parent="1" vertex="1">
          <mxGeometry x="270" y="270" width="110" height="50" as="geometry" />
        </mxCell>
        <mxCell id="HFtPqclyL5IR0Il3LefF-43" value="Форум" style="rounded=0;whiteSpace=wrap;html=1;sketch=0;fontColor=#E4FDE1;strokeColor=#028090;fillColor=#F45B69;" parent="1" vertex="1">
          <mxGeometry x="660" y="90" width="120" height="60" as="geometry" />
        </mxCell>
        <mxCell id="HFtPqclyL5IR0Il3LefF-44" value="" style="endArrow=classic;html=1;fontColor=#E4FDE1;strokeColor=#028090;fillColor=#F45B69;exitX=0;exitY=1;exitDx=0;exitDy=0;labelBackgroundColor=#114B5F;" parent="1" source="HFtPqclyL5IR0Il3LefF-43" target="HFtPqclyL5IR0Il3LefF-45" edge="1">
          <mxGeometry width="50" height="50" relative="1" as="geometry">
            <mxPoint x="420" y="310" as="sourcePoint" />
            <mxPoint x="600" y="210" as="targetPoint" />
          </mxGeometry>
        </mxCell>
        <mxCell id="HFtPqclyL5IR0Il3LefF-45" value="тема n" style="rounded=1;whiteSpace=wrap;html=1;sketch=0;fontColor=#E4FDE1;strokeColor=#028090;fillColor=#F45B69;" parent="1" vertex="1">
          <mxGeometry x="530" y="120" width="80" height="50" as="geometry" />
        </mxCell>
        <mxCell id="HFtPqclyL5IR0Il3LefF-46" value="" style="endArrow=classic;html=1;fontColor=#E4FDE1;strokeColor=#028090;fillColor=#F45B69;exitX=0.5;exitY=1;exitDx=0;exitDy=0;labelBackgroundColor=#114B5F;" parent="1" source="HFtPqclyL5IR0Il3LefF-43" target="HFtPqclyL5IR0Il3LefF-47" edge="1">
          <mxGeometry width="50" height="50" relative="1" as="geometry">
            <mxPoint x="420" y="310" as="sourcePoint" />
            <mxPoint x="720" y="200" as="targetPoint" />
          </mxGeometry>
        </mxCell>
        <mxCell id="HFtPqclyL5IR0Il3LefF-47" value="тема n-1" style="rounded=1;whiteSpace=wrap;html=1;sketch=0;fontColor=#E4FDE1;strokeColor=#028090;fillColor=#F45B69;" parent="1" vertex="1">
          <mxGeometry x="580" y="200" width="90" height="40" as="geometry" />
        </mxCell>
        <mxCell id="HFtPqclyL5IR0Il3LefF-48" value="" style="endArrow=classic;html=1;fontColor=#E4FDE1;strokeColor=#028090;fillColor=#F45B69;exitX=1;exitY=1;exitDx=0;exitDy=0;labelBackgroundColor=#114B5F;" parent="1" source="HFtPqclyL5IR0Il3LefF-43" target="HFtPqclyL5IR0Il3LefF-49" edge="1">
          <mxGeometry width="50" height="50" relative="1" as="geometry">
            <mxPoint x="420" y="310" as="sourcePoint" />
            <mxPoint x="760" y="240" as="targetPoint" />
          </mxGeometry>
        </mxCell>
        <mxCell id="HFtPqclyL5IR0Il3LefF-49" value="тема 1" style="rounded=1;whiteSpace=wrap;html=1;sketch=0;fontColor=#E4FDE1;strokeColor=#028090;fillColor=#F45B69;" parent="1" vertex="1">
          <mxGeometry x="700" y="250" width="100" height="50" as="geometry" />
        </mxCell>
        <mxCell id="lfEdYtf8iI8myToO-Pdx-2" value="Новости" style="rounded=0;whiteSpace=wrap;html=1;hachureGap=4;pointerEvents=0;fillColor=#F45B69;strokeColor=#028090;fontColor=#E4FDE1;" vertex="1" parent="1">
          <mxGeometry x="230" y="130" width="120" height="60" as="geometry" />
        </mxCell>
        <mxCell id="lfEdYtf8iI8myToO-Pdx-3" value="" style="endArrow=classic;html=1;fontColor=#E4FDE1;startSize=14;endSize=14;sourcePerimeterSpacing=8;targetPerimeterSpacing=8;strokeColor=#028090;fillColor=#F45B69;exitX=0;exitY=1;exitDx=0;exitDy=0;entryX=0.5;entryY=0;entryDx=0;entryDy=0;" edge="1" parent="1" source="lfEdYtf8iI8myToO-Pdx-2" target="HFtPqclyL5IR0Il3LefF-37">
          <mxGeometry width="50" height="50" relative="1" as="geometry">
            <mxPoint x="140" y="245" as="sourcePoint" />
            <mxPoint x="190" y="195" as="targetPoint" />
          </mxGeometry>
        </mxCell>
        <mxCell id="lfEdYtf8iI8myToO-Pdx-4" value="" style="endArrow=classic;html=1;fontColor=#E4FDE1;startSize=14;endSize=14;sourcePerimeterSpacing=8;targetPerimeterSpacing=8;strokeColor=#028090;fillColor=#F45B69;exitX=0.5;exitY=1;exitDx=0;exitDy=0;entryX=0.5;entryY=0;entryDx=0;entryDy=0;" edge="1" parent="1" source="lfEdYtf8iI8myToO-Pdx-2" target="HFtPqclyL5IR0Il3LefF-39">
          <mxGeometry width="50" height="50" relative="1" as="geometry">
            <mxPoint x="390" y="420" as="sourcePoint" />
            <mxPoint x="440" y="370" as="targetPoint" />
          </mxGeometry>
        </mxCell>
        <mxCell id="lfEdYtf8iI8myToO-Pdx-5" value="" style="endArrow=classic;html=1;fontColor=#E4FDE1;startSize=14;endSize=14;sourcePerimeterSpacing=8;targetPerimeterSpacing=8;strokeColor=#028090;fillColor=#F45B69;exitX=1;exitY=1;exitDx=0;exitDy=0;" edge="1" parent="1" source="lfEdYtf8iI8myToO-Pdx-2" target="HFtPqclyL5IR0Il3LefF-41">
          <mxGeometry width="50" height="50" relative="1" as="geometry">
            <mxPoint x="390" y="420" as="sourcePoint" />
            <mxPoint x="440" y="370" as="targetPoint" />
          </mxGeometry>
        </mxCell>
        <mxCell id="lfEdYtf8iI8myToO-Pdx-8" value="" style="endArrow=none;html=1;fontColor=#E4FDE1;startSize=14;endSize=14;sourcePerimeterSpacing=8;targetPerimeterSpacing=8;strokeColor=#028090;fillColor=#F45B69;entryX=0.5;entryY=1;entryDx=0;entryDy=0;" edge="1" parent="1" target="HFtPqclyL5IR0Il3LefF-39">
          <mxGeometry width="50" height="50" relative="1" as="geometry">
            <mxPoint x="82" y="467" as="sourcePoint" />
            <mxPoint x="438" y="359" as="targetPoint" />
          </mxGeometry>
        </mxCell>
        <mxCell id="lfEdYtf8iI8myToO-Pdx-9" value="" style="endArrow=classic;html=1;fontColor=#E4FDE1;startSize=14;endSize=14;sourcePerimeterSpacing=8;targetPerimeterSpacing=8;strokeColor=#028090;fillColor=#F45B69;" edge="1" parent="1" target="lfEdYtf8iI8myToO-Pdx-10">
          <mxGeometry width="50" height="50" relative="1" as="geometry">
            <mxPoint x="82" y="373" as="sourcePoint" />
            <mxPoint x="128" y="373" as="targetPoint" />
          </mxGeometry>
        </mxCell>
        <mxCell id="lfEdYtf8iI8myToO-Pdx-10" value="новость 1" style="rounded=1;whiteSpace=wrap;html=1;sketch=0;hachureGap=4;pointerEvents=0;fontColor=#E4FDE1;strokeColor=#028090;fillColor=#F45B69;" vertex="1" parent="1">
          <mxGeometry x="134" y="354" width="79" height="42" as="geometry" />
        </mxCell>
        <mxCell id="lfEdYtf8iI8myToO-Pdx-11" value="" style="endArrow=classic;html=1;fontColor=#E4FDE1;startSize=14;endSize=14;sourcePerimeterSpacing=8;targetPerimeterSpacing=8;strokeColor=#028090;fillColor=#F45B69;" edge="1" parent="1" target="lfEdYtf8iI8myToO-Pdx-12">
          <mxGeometry width="50" height="50" relative="1" as="geometry">
            <mxPoint x="82" y="417" as="sourcePoint" />
            <mxPoint x="128" y="417" as="targetPoint" />
          </mxGeometry>
        </mxCell>
        <mxCell id="lfEdYtf8iI8myToO-Pdx-12" value="новость 2" style="rounded=1;whiteSpace=wrap;html=1;sketch=0;hachureGap=4;pointerEvents=0;fontColor=#E4FDE1;strokeColor=#028090;fillColor=#F45B69;" vertex="1" parent="1">
          <mxGeometry x="134" y="399" width="79" height="42" as="geometry" />
        </mxCell>
        <mxCell id="lfEdYtf8iI8myToO-Pdx-13" value="" style="endArrow=classic;html=1;fontColor=#E4FDE1;startSize=14;endSize=14;sourcePerimeterSpacing=8;targetPerimeterSpacing=8;strokeColor=#028090;fillColor=#F45B69;" edge="1" parent="1" target="lfEdYtf8iI8myToO-Pdx-14">
          <mxGeometry width="50" height="50" relative="1" as="geometry">
            <mxPoint x="82" y="465" as="sourcePoint" />
            <mxPoint x="128" y="465" as="targetPoint" />
          </mxGeometry>
        </mxCell>
        <mxCell id="lfEdYtf8iI8myToO-Pdx-14" value="новость 3" style="rounded=1;whiteSpace=wrap;html=1;sketch=0;hachureGap=4;pointerEvents=0;fontColor=#E4FDE1;strokeColor=#028090;fillColor=#F45B69;" vertex="1" parent="1">
          <mxGeometry x="134" y="445" width="79" height="42" as="geometry" />
        </mxCell>
        <mxCell id="lfEdYtf8iI8myToO-Pdx-15" value="новость 1" style="rounded=1;whiteSpace=wrap;html=1;sketch=0;hachureGap=4;pointerEvents=0;fontColor=#E4FDE1;strokeColor=#028090;fillColor=#F45B69;" vertex="1" parent="1">
          <mxGeometry x="134" y="354" width="79" height="42" as="geometry" />
        </mxCell>
        <mxCell id="lfEdYtf8iI8myToO-Pdx-16" value="новость 2" style="rounded=1;whiteSpace=wrap;html=1;sketch=0;hachureGap=4;pointerEvents=0;fontColor=#E4FDE1;strokeColor=#028090;fillColor=#F45B69;" vertex="1" parent="1">
          <mxGeometry x="134" y="399" width="79" height="42" as="geometry" />
        </mxCell>
        <mxCell id="lfEdYtf8iI8myToO-Pdx-17" value="" style="endArrow=none;html=1;fontColor=#E4FDE1;startSize=14;endSize=14;sourcePerimeterSpacing=8;targetPerimeterSpacing=8;strokeColor=#028090;fillColor=#F45B69;entryX=0.5;entryY=1;entryDx=0;entryDy=0;" edge="1" parent="1">
          <mxGeometry width="50" height="50" relative="1" as="geometry">
            <mxPoint x="291" y="441" as="sourcePoint" />
            <mxPoint x="291" y="320" as="targetPoint" />
          </mxGeometry>
        </mxCell>
        <mxCell id="lfEdYtf8iI8myToO-Pdx-18" value="" style="endArrow=classic;html=1;fontColor=#E4FDE1;startSize=14;endSize=14;sourcePerimeterSpacing=8;targetPerimeterSpacing=8;strokeColor=#028090;fillColor=#F45B69;" edge="1" parent="1">
          <mxGeometry width="50" height="50" relative="1" as="geometry">
            <mxPoint x="291" y="347" as="sourcePoint" />
            <mxPoint x="335" y="347.9617486338798" as="targetPoint" />
          </mxGeometry>
        </mxCell>
        <mxCell id="lfEdYtf8iI8myToO-Pdx-19" value="" style="endArrow=classic;html=1;fontColor=#E4FDE1;startSize=14;endSize=14;sourcePerimeterSpacing=8;targetPerimeterSpacing=8;strokeColor=#028090;fillColor=#F45B69;" edge="1" parent="1">
          <mxGeometry width="50" height="50" relative="1" as="geometry">
            <mxPoint x="291" y="391" as="sourcePoint" />
            <mxPoint x="335" y="392.44262295081967" as="targetPoint" />
          </mxGeometry>
        </mxCell>
        <mxCell id="lfEdYtf8iI8myToO-Pdx-20" value="" style="endArrow=classic;html=1;fontColor=#E4FDE1;startSize=14;endSize=14;sourcePerimeterSpacing=8;targetPerimeterSpacing=8;strokeColor=#028090;fillColor=#F45B69;" edge="1" parent="1">
          <mxGeometry width="50" height="50" relative="1" as="geometry">
            <mxPoint x="291" y="439" as="sourcePoint" />
            <mxPoint x="335" y="439.4808743169399" as="targetPoint" />
          </mxGeometry>
        </mxCell>
        <mxCell id="lfEdYtf8iI8myToO-Pdx-21" value="новость n" style="rounded=1;whiteSpace=wrap;html=1;sketch=0;hachureGap=4;pointerEvents=0;fontColor=#E4FDE1;strokeColor=#028090;fillColor=#F45B69;" vertex="1" parent="1">
          <mxGeometry x="343" y="328" width="79" height="42" as="geometry" />
        </mxCell>
        <mxCell id="lfEdYtf8iI8myToO-Pdx-22" value="новость n-1" style="rounded=1;whiteSpace=wrap;html=1;sketch=0;hachureGap=4;pointerEvents=0;fontColor=#E4FDE1;strokeColor=#028090;fillColor=#F45B69;" vertex="1" parent="1">
          <mxGeometry x="343" y="373" width="79" height="42" as="geometry" />
        </mxCell>
        <mxCell id="lfEdYtf8iI8myToO-Pdx-31" value="новость 1" style="rounded=1;whiteSpace=wrap;html=1;sketch=0;hachureGap=4;pointerEvents=0;fontColor=#E4FDE1;strokeColor=#028090;fillColor=#F45B69;" vertex="1" parent="1">
          <mxGeometry x="343" y="418" width="79" height="42" as="geometry" />
        </mxCell>
      </root>
    </mxGraphModel>
  </diagram>
</mxfile>
